<svg xmlns="http://www.w3.org/2000/svg" width="400" height="280" viewBox="0 0 400 280">
  <defs>
    <linearGradient id="bg" x1="0" y1="0" x2="0" y2="1">
      <stop offset="0" stop-color="#0B1628"/>
      <stop offset="1" stop-color="#0D1F3C"/>
    </linearGradient>
    <linearGradient id="acc" x1="0" y1="0" x2="1" y2="0">
      <stop offset="0" stop-color="#14B8A6"/>
      <stop offset="1" stop-color="#0EA5E9"/>
    </linearGradient>
  </defs>
  <!-- Background -->
  <rect width="400" height="280" fill="url(#bg)"/>
  <!-- Grid -->
  <g opacity="0.05" stroke="#0EA5E9" stroke-width="0.6">
    <line x1="0" y1="70" x2="400" y2="70"/>
    <line x1="0" y1="140" x2="400" y2="140"/>
    <line x1="0" y1="210" x2="400" y2="210"/>
    <line x1="100" y1="0" x2="100" y2="280"/>
    <line x1="200" y1="0" x2="200" y2="280"/>
    <line x1="300" y1="0" x2="300" y2="280"/>
  </g>
  <!-- Glow blobs -->
  <ellipse cx="320" cy="80" rx="130" ry="90" fill="rgba(14,165,233,0.08)"/>
  <ellipse cx="80" cy="220" rx="100" ry="70" fill="rgba(20,184,166,0.06)"/>
  <!-- Left accent bar -->
  <rect x="0" y="0" width="4" height="280" fill="url(#acc)"/>
  <!-- Top badge -->
  <rect x="18" y="16" width="100" height="24" rx="5" fill="#0369A1" opacity="0.9"/>
  <text x="68" y="32" font-family="'Segoe UI',Arial,sans-serif" font-size="10" font-weight="700" fill="white" text-anchor="middle" letter-spacing="0.5">START HERE</text>
  <!-- Brand icon circle -->
  <circle cx="350" cy="26" r="16" fill="rgba(20,184,166,0.15)" stroke="rgba(20,184,166,0.3)" stroke-width="1"/>
  <text x="350" y="31" font-family="'Segoe UI',Arial,sans-serif" font-size="14" fill="#14B8A6" text-anchor="middle">📋</text>
  <!-- Title -->
  <text x="18" y="90" font-family="'Segoe UI',Arial,sans-serif" font-size="28" font-weight="800" fill="white" letter-spacing="-0.5">Start Here:</text>
  <text x="18" y="126" font-family="'Segoe UI',Arial,sans-serif" font-size="28" font-weight="800" fill="#0EA5E9" letter-spacing="-0.5">Meeting Notes</text>
  <!-- Accent line -->
  <rect x="18" y="136" width="200" height="2" fill="url(#acc)" rx="1"/>
  <!-- Subtitle -->
  <text x="18" y="160" font-family="'Segoe UI',Arial,sans-serif" font-size="12" fill="rgba(255,255,255,0.6)" font-weight="400">Actions, summaries and follow-ups.</text>
  <!-- Document mini mockup -->
  <g transform="translate(250, 50)">
    <rect x="8" y="8" width="120" height="155" rx="5" fill="rgba(20,184,166,0.12)"/>
    <rect x="4" y="4" width="120" height="155" rx="5" fill="rgba(14,165,233,0.1)"/>
    <rect x="0" y="0" width="120" height="155" rx="5" fill="#F8FAFC"/>
    <rect x="0" y="0" width="120" height="22" rx="5" fill="#0B1628"/>
    <rect x="0" y="17" width="120" height="5" fill="#0B1628"/>
    <rect x="0" y="19" width="120" height="3" fill="#0EA5E9" opacity="0.8"/>
    <text x="60" y="14" font-family="'Segoe UI',Arial,sans-serif" font-size="7" fill="rgba(255,255,255,0.7)" text-anchor="middle" font-weight="600">PRACTICAL AI CO.</text>
    <rect x="10" y="30" width="100" height="5" rx="2" fill="#E2E8F0"/>
    <rect x="10" y="40" width="80" height="5" rx="2" fill="#E2E8F0"/>
    <rect x="10" y="54" width="100" height="28" rx="4" fill="#F0FDF4" stroke="#14B8A6" stroke-width="0.8"/>
    <rect x="10" y="54" width="3" height="28" rx="2" fill="#14B8A6"/>
    <rect x="17" y="61" width="70" height="4" rx="2" fill="#CCFBF1"/>
    <rect x="17" y="70" width="55" height="4" rx="2" fill="#CCFBF1"/>
    <rect x="10" y="90" width="100" height="4" rx="2" fill="#E2E8F0"/>
    <rect x="10" y="100" width="85" height="4" rx="2" fill="#E2E8F0"/>
    <rect x="10" y="110" width="95" height="4" rx="2" fill="#E2E8F0"/>
    <rect x="10" y="120" width="70" height="4" rx="2" fill="#E2E8F0"/>
    <rect x="10" y="134" width="100" height="18" rx="3" fill="#0F172A"/>
    <text x="60" y="146" font-family="'Courier New',monospace" font-size="7" fill="#14B8A6" text-anchor="middle">copy-paste ready</text>
    <rect x="0" y="148" width="120" height="7" rx="3" fill="#F1F5F9"/>
    <text x="60" y="154" font-family="'Segoe UI',Arial,sans-serif" font-size="6" fill="#94A3B8" text-anchor="middle">practicalaico.ai</text>
  </g>
  <!-- Price tag -->
  <rect x="18" y="186" width="90" height="30" rx="8" fill="rgba(20,184,166,0.15)" stroke="rgba(20,184,166,0.4)" stroke-width="1"/>
  <text x="63" y="206" font-family="'Segoe UI',Arial,sans-serif" font-size="15" font-weight="800" fill="#14B8A6" text-anchor="middle">A$5.00</text>
  <!-- Brand footer -->
  <rect x="0" y="258" width="400" height="22" fill="rgba(0,0,0,0.25)"/>
  <text x="18" y="273" font-family="'Segoe UI',Arial,sans-serif" font-size="10" fill="rgba(255,255,255,0.35)">The Practical AI Co.</text>
  <text x="382" y="273" font-family="'Segoe UI',Arial,sans-serif" font-size="10" fill="rgba(255,255,255,0.35)" text-anchor="end">practicalaico.ai</text>
</svg>